<?xml version="1.0" encoding="UTF-8"?>
<svg version="1.1" xmlns="http://www.w3.org/2000/svg" width="112" height="69">
<path d="M0 0 C3.07905108 0.19006488 6.13477038 0.66353527 9.19189453 1.07666016 C9.52189453 6.02666016 9.85189453 10.97666016 10.19189453 16.07666016 C10.82998047 15.07763672 11.46806641 14.07861328 12.12548828 13.04931641 C12.96005726 11.74588845 13.7946963 10.44250535 14.62939453 9.13916016 C15.05027344 8.47980469 15.47115234 7.82044922 15.90478516 7.14111328 C19.07861328 2.18994141 19.07861328 2.18994141 20.19189453 1.07666016 C22.72467103 1.00345852 25.22293371 0.98438446 27.75439453 1.01416016 C30.20876953 1.03478516 32.66314453 1.05541016 35.19189453 1.07666016 C35.68689453 8.50166016 35.68689453 8.50166016 36.19189453 16.07666016 C37.51189453 11.12666016 38.83189453 6.17666016 40.19189453 1.07666016 C43.29611902 1.04971896 46.40011027 1.02984968 49.50439453 1.01416016 C50.82600586 1.0015918 50.82600586 1.0015918 52.17431641 0.98876953 C53.021875 0.98554687 53.86943359 0.98232422 54.74267578 0.97900391 C55.52296143 0.97376709 56.30324707 0.96853027 57.10717773 0.96313477 C59.19189453 1.07666016 59.19189453 1.07666016 62.19189453 2.07666016 C62.87939453 4.26416016 62.87939453 4.26416016 63.19189453 7.07666016 C62.19189453 8.74332682 61.19189453 10.40999349 60.19189453 12.07666016 C60.51739955 13.74487338 60.85035516 15.41165573 61.19189453 17.07666016 C60.19262695 19.20458984 60.19262695 19.20458984 58.19189453 21.07666016 C55.54484325 21.43335909 53.31953777 21.54442812 50.68017578 21.46728516 C49.95195114 21.46162537 49.2237265 21.45596558 48.47343445 21.45013428 C46.14974955 21.42776044 43.82761246 21.37756684 41.50439453 21.32666016 C39.92824494 21.30659625 38.35207116 21.28834528 36.77587891 21.27197266 C32.91395529 21.22789299 29.05318723 21.15886241 25.19189453 21.07666016 C25.19189453 20.41666016 25.19189453 19.75666016 25.19189453 19.07666016 C23.21189453 19.07666016 21.23189453 19.07666016 19.19189453 19.07666016 C19.19189453 19.73666016 19.19189453 20.39666016 19.19189453 21.07666016 C12.92189453 21.07666016 6.65189453 21.07666016 0.19189453 21.07666016 C0.19189453 20.41666016 0.19189453 19.75666016 0.19189453 19.07666016 C-0.75685547 19.40666016 -1.70560547 19.73666016 -2.68310547 20.07666016 C-7.36257803 21.44110595 -11.97634306 21.25165356 -16.80810547 21.07666016 C-8.92775528 0.47574469 -8.92775528 0.47574469 0 0 Z M48.19189453 8.07666016 C48.19189453 8.73666016 48.19189453 9.39666016 48.19189453 10.07666016 C49.51189453 9.74666016 50.83189453 9.41666016 52.19189453 9.07666016 C50.87189453 8.74666016 49.55189453 8.41666016 48.19189453 8.07666016 Z M25.19189453 9.07666016 C24.53189453 10.39666016 23.87189453 11.71666016 23.19189453 13.07666016 C24.18189453 13.07666016 25.17189453 13.07666016 26.19189453 13.07666016 C25.86189453 11.75666016 25.53189453 10.43666016 25.19189453 9.07666016 Z M-0.80810547 10.07666016 C-1.13810547 11.06666016 -1.46810547 12.05666016 -1.80810547 13.07666016 C-1.14810547 13.07666016 -0.48810547 13.07666016 0.19189453 13.07666016 C-0.13810547 12.08666016 -0.46810547 11.09666016 -0.80810547 10.07666016 Z M46.19189453 14.07666016 C46.19189453 14.73666016 46.19189453 15.39666016 46.19189453 16.07666016 C47.84189453 15.74666016 49.49189453 15.41666016 51.19189453 15.07666016 C51.19189453 14.74666016 51.19189453 14.41666016 51.19189453 14.07666016 C49.54189453 14.07666016 47.89189453 14.07666016 46.19189453 14.07666016 Z " fill="#ECE926" transform="translate(16.80810546875,47.92333984375)"/>
<path d="M0 0 C0.66 0 1.32 0 2 0 C2.20086443 3.71599191 2.1519437 4.77208445 0 8 C0.99 9.98 1.98 11.96 3 14 C5.64 14 8.28 14 11 14 C10.67 15.32 10.34 16.64 10 18 C11.175625 18.515625 12.35125 19.03125 13.5625 19.5625 C18.26491281 21.88436871 21.52348606 25.13237825 25 29 C24.505 30.485 24.505 30.485 24 32 C23.030625 31.236875 22.06125 30.47375 21.0625 29.6875 C9.41570747 21.51390604 -5.10397147 22.23494525 -18.56835938 24.45507812 C-26.49153876 25.91949143 -34.1400529 28.24065631 -41.8046875 30.6953125 C-44.84899475 31.66889995 -47.84016877 32.4754936 -51 33 C-50 30 -50 30 -46.578125 28.02734375 C-45.1404155 27.32046991 -43.6974243 26.62426206 -42.25 25.9375 C-41.53328125 25.58623047 -40.8165625 25.23496094 -40.078125 24.87304688 C-30.05567698 20 -30.05567698 20 -26 20 C-26 18.68 -26 17.36 -26 16 C-19.84765625 15.12109375 -19.84765625 15.12109375 -18 15 C-17.505 15.495 -17.505 15.495 -17 16 C-16.731875 14.906875 -16.46375 13.81375 -16.1875 12.6875 C-14.48790601 7.40981341 -14.48790601 7.40981341 -12 6 C-9.97779932 6.09629527 -7.95560605 6.19279566 -5.93359375 6.29296875 C-3.57179273 6.16002126 -3.57179273 6.16002126 -1.625 3 C-1.08875 2.01 -0.5525 1.02 0 0 Z M-12 11 C-12.04080783 12.99958364 -12.04254356 15.00045254 -12 17 C-8.7 16.67 -5.4 16.34 -2 16 C-2.5739739 11.79819816 -2.5739739 11.79819816 -6 10 C-9.29355922 9.55305909 -9.29355922 9.55305909 -12 11 Z " fill="#EAE82A" transform="translate(65,15)"/>
<path d="M0 0 C2.91691525 -0.05401695 5.83282724 -0.09368066 8.75 -0.125 C9.575 -0.14175781 10.4 -0.15851562 11.25 -0.17578125 C12.04921875 -0.18222656 12.8484375 -0.18867187 13.671875 -0.1953125 C14.4050293 -0.20578613 15.13818359 -0.21625977 15.89355469 -0.22705078 C18.29896076 0.03222456 19.91251494 0.80774075 22 2 C22.25 7.625 22.25 7.625 20 11 C20.020625 11.99 20.04125 12.98 20.0625 14 C20 17 20 17 18.81518555 18.66918945 C16.39189147 20.4458372 14.87965017 20.34473382 11.89453125 20.29296875 C10.91162109 20.28330078 9.92871094 20.27363281 8.91601562 20.26367188 C7.89185547 20.23853516 6.86769531 20.21339844 5.8125 20.1875 C4.77673828 20.17396484 3.74097656 20.16042969 2.67382812 20.14648438 C0.11536301 20.11111389 -2.4420578 20.06175544 -5 20 C-3.86991585 13.07869772 -2.39298094 6.59562501 0 0 Z M8 7 C7.67 7.66 7.34 8.32 7 9 C8.65 8.67 10.3 8.34 12 8 C10.68 7.67 9.36 7.34 8 7 Z M6 13 C6 13.66 6 14.32 6 15 C7.32 15 8.64 15 10 15 C10 14.34 10 13.68 10 13 C8.68 13 7.36 13 6 13 Z " fill="#ECE926" transform="translate(83,49)"/>
<path d="M0 0 C10.23 0 20.46 0 31 0 C31 1.65 31 3.3 31 5 C27.45811722 6.09828769 24.1790238 6.11445011 20.484375 6.09765625 C19.23398438 6.09443359 17.98359375 6.09121094 16.6953125 6.08789062 C14.74238281 6.07532227 14.74238281 6.07532227 12.75 6.0625 C10.77386719 6.05573242 10.77386719 6.05573242 8.7578125 6.04882812 C5.50516259 6.03704316 2.25260416 6.02059011 -1 6 C-0.67 4.02 -0.34 2.04 0 0 Z " fill="#EAE82E" transform="translate(76,0)"/>
<path d="M0 0 C2.31 0 4.62 0 7 0 C7.33 1.32 7.66 2.64 8 4 C1.25 4.125 1.25 4.125 -1 3 C-0.67 2.01 -0.34 1.02 0 0 Z " fill="#EAE82E" transform="translate(40,24)"/>
<path d="M0 0 C-0.33 1.32 -0.66 2.64 -1 4 C-3.31 4.33 -5.62 4.66 -8 5 C-7.625 3.0625 -7.625 3.0625 -7 1 C-4.53721199 -0.231394 -2.7204945 -0.07159196 0 0 Z " fill="#EAE82E" transform="translate(75,22)"/>
<path d="M0 0 C0.99 0 1.98 0 3 0 C3.33 2.31 3.66 4.62 4 7 C2.68 7.33 1.36 7.66 0 8 C0 5.36 0 2.72 0 0 Z " fill="#EAE82E" transform="translate(55,12)"/>
<path d="M0 0 C2.475 0.495 2.475 0.495 5 1 C5.33 2.65 5.66 4.3 6 6 C3 6 3 6 1.3125 4.6875 C0 3 0 3 0 0 Z " fill="#EAE82E" transform="translate(45,16)"/>
</svg>
