<svg width="224" height="43" viewBox="0 0 224 43" fill="none" xmlns="http://www.w3.org/2000/svg">
<path fill-rule="evenodd" clip-rule="evenodd" d="M123 0L112 41C123.5 41.5 147.9 42.2 153.5 41C160.5 39.5 167 32 164.5 26C162.859 22.0608 159.278 21.5699 158.143 21.4144C157.922 21.384 157.794 21.3664 157.791 21.3385C157.788 21.3001 158.023 21.242 158.581 21.1042C158.704 21.0736 158.844 21.0391 159 21C163 20 168.5 14.5 169 8.5C169.4 3.7 165.34 0.833333 163.26 0H123ZM147 12H138L136.5 17H147C147.5 16.8333 148.5 16.1 148.5 14.5C148.5 12.9 147.5 12.1667 147 12ZM134.5 25H144C144.667 25.1667 145.9 26 145.5 28C145.107 29.9661 143.071 30.6437 142.052 30.9828C142.034 30.9886 142.017 30.9944 142 31H133L134.5 25Z" fill="#030067"/>
<path fill-rule="evenodd" clip-rule="evenodd" d="M25.5 0.5L0 42H20.5L23.5 36.5H37V42L74.5 41.5L77.5 36.5H90.5V42H109.5V0.5H79L55.5 39.5V0.5H25.5ZM37.5 25V12.5L29 25H37.5ZM91.5 12.5V25H83L91.5 12.5Z" fill="#030067"/>
<path fill-rule="evenodd" clip-rule="evenodd" d="M177 0.5L166 41.5C177.5 42 201.9 42.7 207.5 41.5C214.5 40 221 32.5 218.5 26.5C216.859 22.5608 213.278 22.0699 212.143 21.9144C211.922 21.884 211.794 21.8664 211.791 21.8385C211.788 21.8001 212.023 21.742 212.581 21.6042C212.704 21.5736 212.844 21.5391 213 21.5C217 20.5 222.5 15 223 9C223.4 4.2 219.34 1.33333 217.26 0.5H177ZM201 12.5H192L190.5 17.5H201C201.5 17.3333 202.5 16.6 202.5 15C202.5 13.4 201.5 12.6667 201 12.5ZM188.5 25.5H198C198.667 25.6667 199.9 26.5 199.5 28.5C199.107 30.4661 197.071 31.1437 196.052 31.4828C196.034 31.4886 196.017 31.4944 196 31.5H187L188.5 25.5Z" fill="#030067"/>
</svg>
