<svg width="227" height="152" viewBox="0 0 227 152" fill="none" xmlns="http://www.w3.org/2000/svg">
<path d="M114 57.4824C110.4 59.8824 110.667 68.3157 111 72.4824L105 73.4824C104.833 70.9824 104.795 65.1189 105 63.4824C105.5 59.4824 106.5 56.9824 108 54.9824C110.285 51.9361 115 48.2046 125.5 48.9824C136.3 49.7824 141 61.9824 141 71.4824L135.5 70.9824C134.5 64.4824 133.5 60.4824 129.5 57.9824C125.79 55.6637 118.5 54.4824 114 57.4824Z" fill="#FDFF03"/>
<path d="M137 81.9824C80.5 82.9824 30 105.482 30 105.482C30 105.482 63.5 72.4935 131.5 70.9824C176.5 69.9824 190.5 102.982 190.5 102.982C190.5 102.982 168.5 81.9824 137 81.9824Z" fill="#FDFF03"/>
<path fill-rule="evenodd" clip-rule="evenodd" d="M123 108.982L112 149.982C123.5 150.482 147.9 151.182 153.5 149.982C160.5 148.482 167 140.982 164.5 134.982C162.859 131.043 159.278 130.552 158.143 130.397C157.922 130.366 157.794 130.349 157.791 130.321C157.788 130.282 158.023 130.224 158.581 130.087C158.704 130.056 158.844 130.022 159 129.982C163 128.982 168.5 123.482 169 117.482C169.4 112.682 165.34 109.816 163.26 108.982H123ZM147 120.982H138L136.5 125.982H147C147.5 125.816 148.5 125.082 148.5 123.482C148.5 121.882 147.5 121.149 147 120.982ZM134.5 133.982H144C144.667 134.149 145.9 134.982 145.5 136.982C145.107 138.949 143.071 139.626 142.052 139.965C142.034 139.971 142.017 139.977 142 139.982H133L134.5 133.982Z" fill="#FDFF03"/>
<path fill-rule="evenodd" clip-rule="evenodd" d="M25.5 109.482L0 150.982H20.5L23.5 145.482H37V150.982L74.5 150.482L77.5 145.482H90.5V150.982H109.5V109.482H79L55.5 148.482V109.482H25.5ZM37.5 133.982V121.482L29 133.982H37.5ZM91.5 121.482V133.982H83L91.5 121.482Z" fill="#FDFF03"/>
<path fill-rule="evenodd" clip-rule="evenodd" d="M177 109.482L166 150.482C177.5 150.982 201.9 151.682 207.5 150.482C214.5 148.982 221 141.482 218.5 135.482C216.859 131.543 213.278 131.052 212.143 130.897C211.922 130.866 211.794 130.849 211.791 130.821C211.788 130.782 212.023 130.724 212.581 130.587C212.704 130.556 212.844 130.522 213 130.482C217 129.482 222.5 123.982 223 117.982C223.4 113.182 219.34 110.316 217.26 109.482H177ZM201 121.482H192L190.5 126.482H201C201.5 126.316 202.5 125.582 202.5 123.982C202.5 122.382 201.5 121.649 201 121.482ZM188.5 134.482H198C198.667 134.649 199.9 135.482 199.5 137.482C199.107 139.449 197.071 140.126 196.052 140.465C196.034 140.471 196.017 140.477 196 140.482H187L188.5 134.482Z" fill="#FDFF03"/>
<ellipse cx="91.3327" cy="71.4781" rx="9" ry="2.49638" transform="rotate(-13.2704 91.3327 71.4781)" fill="#FDFF03"/>
<ellipse cx="92.1674" cy="59.1738" rx="9" ry="2.49638" transform="rotate(4.47746 92.1674 59.1738)" fill="#FDFF03"/>
<ellipse cx="101.732" cy="43.4557" rx="9" ry="2.49638" transform="rotate(49.6215 101.732 43.4557)" fill="#FDFF03"/>
<ellipse cx="120.24" cy="37.177" rx="8.14715" ry="3.15602" transform="rotate(90.5486 120.24 37.177)" fill="#FDFF03"/>
<ellipse cx="137.995" cy="42.5637" rx="8.14715" ry="3.15602" transform="rotate(122.013 137.995 42.5637)" fill="#FDFF03"/>
<ellipse cx="150.829" cy="55.0985" rx="8.14715" ry="3.41019" transform="rotate(158.886 150.829 55.0985)" fill="#FDFF03"/>
<ellipse cx="153.263" cy="68.9653" rx="8.14715" ry="2.59177" transform="rotate(177.227 153.263 68.9653)" fill="#FDFF03"/>
<path d="M160.754 14L162.301 4.198H165.72L168.06 9.632H168.164C168.151 8.813 168.125 7.968 168.255 7.136L168.723 4.198H172.129L170.582 14H167.176L164.862 8.852H164.758C164.758 9.528 164.771 10.165 164.667 10.815L164.16 14H160.754ZM175.367 10.516C175.289 11.062 175.471 11.53 176.082 11.53C176.719 11.53 177.057 11.023 177.148 10.49C177.226 9.957 176.927 9.567 176.394 9.567C175.861 9.567 175.458 10.009 175.367 10.516ZM176.485 14L176.732 13.09H176.654C175.939 13.74 175.328 14.156 174.379 14.156C172.507 14.156 171.766 12.258 172.039 10.581C172.312 8.839 173.664 6.941 175.614 6.941C176.446 6.941 177.083 7.24 177.473 7.916H177.551L177.577 7.097H180.866L179.774 14H176.485ZM186.088 4.874L185.724 7.188L186.842 7.136L186.426 9.775L185.321 9.71L184.645 14H181.265L181.941 9.71L181.109 9.775L181.525 7.136L182.344 7.188L182.708 4.874H186.088ZM189.827 10.516C189.749 11.062 189.931 11.53 190.542 11.53C191.179 11.53 191.517 11.023 191.608 10.49C191.686 9.957 191.387 9.567 190.854 9.567C190.321 9.567 189.918 10.009 189.827 10.516ZM190.945 14L191.192 13.09H191.114C190.399 13.74 189.788 14.156 188.839 14.156C186.967 14.156 186.226 12.258 186.499 10.581C186.772 8.839 188.124 6.941 190.074 6.941C190.906 6.941 191.543 7.24 191.933 7.916H192.011L192.037 7.097H195.326L194.234 14H190.945ZM195.375 14L197.039 3.457H200.393L198.729 14H195.375ZM199.262 15.846L203.487 4.484H204.917L200.692 15.846H199.262ZM205.939 14L207.486 4.198H211.789C213.999 4.198 215.728 5.134 215.338 7.604C215.104 9.086 214.428 9.71 213.037 10.152L213.024 10.23C213.18 10.373 213.375 10.529 213.531 10.815L215.156 14H211.048L209.982 10.854H209.917L209.423 14H205.939ZM210.554 6.876L210.281 8.54H210.528C211.113 8.54 211.711 8.449 211.828 7.721C211.945 6.967 211.438 6.876 210.827 6.876H210.554ZM215.466 14L217.013 4.198H220.432L222.772 9.632H222.876C222.863 8.813 222.837 7.968 222.967 7.136L223.435 4.198H226.841L225.294 14H221.888L219.574 8.852H219.47C219.47 9.528 219.483 10.165 219.379 10.815L218.872 14H215.466Z" fill="#FDFF03"/>
</svg>
